<svg xmlns="http://www.w3.org/2000/svg" viewBox="0 0 512 512" role="img" aria-labelledby="title">
  <title id="title">ReceiptSplitter</title>
  <rect width="512" height="512" rx="112" fill="#0e7490" />
  <path
    d="M162 112h188c15.5 0 28 12.5 28 28v254l-31-18-31 18-31-18-31 18-31-18-31 18-30-17V140c0-15.5 12.5-28 28-28Z"
    fill="#f8fafc"
  />
  <path
    d="M204 178h104M204 230h104M204 282h64"
    fill="none"
    stroke="#0e7490"
    stroke-width="24"
    stroke-linecap="round"
  />
  <path
    d="M320 282h-20c-13.3 0-24 10.7-24 24s10.7 24 24 24h16c13.3 0 24 10.7 24 24s-10.7 24-24 24h-32M308 258v144"
    fill="none"
    stroke="#0e7490"
    stroke-width="18"
    stroke-linecap="round"
    stroke-linejoin="round"
  />
</svg>
